<?xml version="1.0" encoding="UTF-8"?><svg id="Layer_1" xmlns="http://www.w3.org/2000/svg" viewBox="0 0 512 166"><defs><style>.cls-1{fill:#3c3d61;stroke-width:0px;}</style></defs><rect class="cls-1" x="1.02" y="123.96" width="509.79" height=".57"/><path class="cls-1" d="M36.95,28.92c-.19.08-.85.38-.85.4-1.24.77-1.99,2.11-2,3.57-.06,2.27,1.73,4.17,4.01,4.23.07,0,.14,0,.21,0,.69-.1,1.36-.29,2-.55,6.65-2.44,39.44-11.37,56.7,4.21.56.46,1.08.93,1.61,1.43.53.5,1,1,1.42,1.6,15.54,17.28,6.56,50.06,4.11,56.71-.27.64-.45,1.31-.55,2-.07,2.27,1.71,4.17,3.98,4.24.08,0,.16,0,.24,0,1.46,0,2.81-.76,3.57-2,.15-.27.28-.56.39-.85,19.66-45.29,17-68.62,5.38-80.21-11.57-11.69-34.9-14.36-80.22,5.22ZM115.59,33.77s0,.03,0,.04c-.38,4.19-4.09,7.28-8.28,6.9-4.19-.38-7.28-4.09-6.9-8.28.38-4.19,4.09-7.28,8.28-6.9,4.18.37,7.27,4.06,6.9,8.24Z"/><path class="cls-1" d="M130.72,1.04c-5.44-.47-10.24,3.55-10.72,8.98-.48,5.45,3.54,10.25,8.98,10.74,5.45.48,10.25-3.54,10.74-8.98.47-5.45-3.55-10.25-9-10.74Z"/><path class="cls-1" d="M89.89,46.59s0,0,0,0c-2.85-.25-5.38,1.85-5.63,4.71-.25,2.86,1.85,5.38,4.71,5.63,2.86.25,5.38-1.85,5.63-4.71,0-.01,0-.02,0-.03.25-2.84-1.86-5.35-4.7-5.6Z"/><path class="cls-1" d="M76.48,61.1s0,0-.01,0c-2.15-.19-4.04,1.4-4.22,3.55-.19,2.15,1.4,4.04,3.55,4.22,2.15.19,4.04-1.4,4.22-3.55.17-2.14-1.4-4.02-3.54-4.22Z"/><path class="cls-1" d="M220.65,24.1h-6.33c-2.01.1-3.56,1.79-3.48,3.8v50.19l-38.9-52.76c-1.63-2.21-2.84-2.39-4.25-2.39h-.79c-1.97.08-3.52,1.72-3.49,3.69v78c-.05,2,1.49,3.68,3.49,3.8h6.23c2.01-.09,3.56-1.79,3.48-3.8v-51.76l39,54.4c1.54,2.1,2.75,2.27,4.16,2.27h.89c1.97-.08,3.51-1.71,3.48-3.68V27.86c.04-1.99-1.51-3.65-3.49-3.76Z"/><path class="cls-1" d="M248.96,24.1h-6.53c-2,.12-3.54,1.8-3.48,3.8v76.68c-.06,2,1.48,3.68,3.48,3.8h6.53c2-.12,3.54-1.8,3.48-3.8V27.9c.06-2-1.48-3.68-3.48-3.8Z"/><path class="cls-1" d="M293.87,24.1h-22.58c-2.01.1-3.56,1.79-3.48,3.8v76.68c-.08,2.01,1.47,3.71,3.48,3.8h6.44c2-.12,3.54-1.8,3.48-3.8v-25.62h12.75c13.06,0,23.68-12.41,23.68-27.66,0-15-10.66-27.2-23.77-27.2ZM293.67,64.45h-12.46v-25.56h12.46c5.92,0,10.57,5.4,10.57,12.33,0,7.42-4.64,13.23-10.57,13.23Z"/><path class="cls-1" d="M382.31,24.1h-6.53c-2.01.1-3.56,1.79-3.48,3.8v30.72h-33v-30.72c.08-2.01-1.47-3.7-3.48-3.8h-6.54c-2,.12-3.54,1.8-3.48,3.8v76.68c-.06,2,1.48,3.68,3.48,3.8h6.54c2.01-.1,3.56-1.79,3.48-3.8v-31.87h33v31.87c-.08,2.01,1.47,3.71,3.48,3.8h6.53c2-.12,3.54-1.8,3.49-3.8V27.9c.05-2-1.49-3.68-3.49-3.8Z"/><path class="cls-1" d="M19.34,135.6h-2.07s0,0-.01,0c-.34,0-.61.28-.6.62v15.33h-.07l-13.59-15.77c-.21-.35-.6-.54-1-.48h-.26c-.33,0-.59.25-.61.58l.04,21.79c0,.34.27.61.61.62h2c.34,0,.62-.28.62-.62v-15.77h.06l13.65,16.24c.2.31.57.49.94.45h.29c.33,0,.6-.25.62-.58v-21.79c-.01-.34-.28-.61-.62-.62Z"/><path class="cls-1" d="M31.85,143c-4.24.07-7.65,3.54-7.64,7.78,0,.07,0,.15,0,.22.1,4.32,3.68,7.74,8,7.64,4.32-.1,7.74-3.68,7.64-8-.1-4.32-3.68-7.74-8-7.64ZM31.85,155.57c-.07,0-.13,0-.2,0-2.5-.14-4.41-2.29-4.26-4.78,0-.08,0-.16,0-.24.16-2.62,2.41-4.61,5.03-4.45s4.61,2.41,4.45,5.03-2.41,4.61-5.03,4.45Z"/><path class="cls-1" d="M50.12,143.01c-1.77-.01-3.45.81-4.53,2.21l-.35-1.37c-.08-.3-.34-.51-.65-.52h-.82c-.39.02-.69.32-.71.71v13.54c.02.39.33.7.72.71h1.49c.57,0,1-.07,1-.71v-9.49c.76-1.22,2.09-1.98,3.53-2,.46,0,.92.11,1.35.29.02.01.05.02.07.03.34.12.71-.05.84-.38l.78-1.62c.48-1.01-1.3-1.4-2.72-1.4Z"/><path class="cls-1" d="M74.59,143.34h-1.36c-.39,0-.94,0-1.14.45l-2.39,8.62h-.07l-4-9c-.12-.24-.38-.39-.65-.36h-.23c-.25,0-.49.14-.61.36l-4,9h-.07l-2.46-8.58c-.09-.28-.35-.46-.64-.45h-2c-.14-.02-.29.01-.4.1-.23.17-.28.51-.11.74l4.37,14c.09.25.34.41.61.38h.2c.25.02.48-.12.58-.35l4.6-10.17h.06l4.57,10.17c.13.23.38.36.64.35h.13c.28.03.56-.12.68-.38l4.27-14.04c.22-.45-.07-.84-.58-.84Z"/><path class="cls-1" d="M85.22,143c-4.5,0-7.45,3.49-7.45,7.76s2.95,7.83,7.48,7.83c2,.05,3.96-.6,5.53-1.84.46-.38.33-.67.07-1l-.87-1.36c-.26-.38-.55-.29-.88-.06-1.04.83-2.33,1.27-3.66,1.26-2.34.05-4.31-1.74-4.47-4.08h10.33c.36,0,.65-.28.68-.64.04-.33.07-.67.07-1,0-.12,0-.24,0-.37-.09-3.68-3.15-6.6-6.83-6.5ZM81.15,149.16c.21-2.02,1.97-3.52,4-3.4.01,0,.02,0,.04,0,1.95-.07,3.58,1.45,3.65,3.4h-7.69Z"/><path class="cls-1" d="M108.14,143.35h-.87c-.36,0-.46.23-.55.52l-.39.94c-1.29-1.17-2.98-1.81-4.73-1.79-4.06,0-7.06,3.44-7.06,7.81s3.14,7.83,7.22,7.83c1.34-.03,2.66-.39,3.82-1.06v.8c0,3-1.72,4-3.72,4-1.29-.05-2.53-.54-3.5-1.39-.05-.05-.11-.08-.17-.11-.32-.14-.69.01-.83.33l-.78,1.43c-.15.28-.08.63.16.84,1.45,1.21,3.29,1.88,5.18,1.88,3.93,0,6.93-2.33,6.93-7v-14.32c-.02-.39-.32-.69-.71-.71ZM105.61,154.37c-1,.75-2.21,1.17-3.46,1.2-2.5-.13-4.44-2.23-4.37-4.73,0-2.53,1.68-4.73,4.24-4.73,1.48.05,2.83.85,3.59,2.11v6.15Z"/><path class="cls-1" d="M115,135.75s-.02,0-.03,0c-1.19.03-2.13,1.01-2.1,2.2,0,0,0,.01,0,.02,0,1.18.95,2.14,2.13,2.15.1,0,.2,0,.3,0,1.21-.08,2.12-1.13,2.04-2.33-.08-1.21-1.13-2.12-2.33-2.04Z"/><path class="cls-1" d="M115.91,143.33h-1.81c-.39.02-.69.32-.71.71v13.54c0,.39.32.7.71.71h1.81c.39-.02.69-.32.71-.71v-13.54c-.02-.38-.33-.69-.71-.71Z"/><path class="cls-1" d="M126.94,143c-1.75,0-3.49.29-5.15.85-.02,0-.04.01-.06.02-.35.12-.54.5-.42.85l.29,1.23s0,.05.01.08c.08.38.45.62.83.54,1.35-.43,2.76-.68,4.18-.72,1.88,0,2.46,1.07,2.39,3.44-.97-.29-1.98-.44-3-.46-3.85,0-5.99,2.08-6,4.84-.02.21-.02.42-.01.63.13,2.54,2.3,4.5,4.84,4.37,1.72,0,3.37-.67,4.6-1.87l.35,1c.16.39.33.52.62.52h1.07c.38-.02.69-.33.71-.71v-8c0-3.72-.46-6.61-5.25-6.61ZM128.99,154.22c-.84,1.07-2.1,1.72-3.46,1.77-.1,0-.21,0-.31,0-1.2-.09-2.1-1.13-2.02-2.33,0-1.55,1.32-2.45,3.07-2.45.93-.02,1.86.16,2.72.51v2.5Z"/><path class="cls-1" d="M144.15,143c-1.88-.04-3.7.72-5,2.08l-.45-1.3c-.06-.28-.33-.48-.62-.45h-.78c-.38.02-.69.33-.71.71l-.07,13.54c.01.39.32.7.71.71h1.66c.61,0,.87-.23.87-.71v-9.33c.84-1.37,2.34-2.19,3.95-2.17,2,0,3,1.43,3,3.85v7.65c0,.39.32.7.71.71h1.81c.39-.02.69-.32.71-.71v-7.52c0-3.88-1.23-7.06-5.79-7.06Z"/><path class="cls-1" d="M165.59,135.6h-2.18c-.34.01-.6.28-.61.62l.04,21.43c0,.34.27.61.61.62h2.14c.34-.01.6-.28.61-.62v-21.43c0-.34-.27-.61-.61-.62Z"/><path class="cls-1" d="M178.93,143c-1.88-.03-3.7.72-5,2.08l-.45-1.3c-.06-.28-.32-.48-.61-.45h-.78c-.39.02-.69.32-.71.71v13.51c0,.39.32.7.71.71h1.62c.62,0,.88-.23.88-.71v-9.33c.85-1.37,2.35-2.18,3.96-2.14,1.94,0,2.94,1.43,2.94,3.85v7.65c.01.39.32.7.71.71h1.82c.38-.02.69-.33.71-.71v-7.52c0-3.88-1.23-7.06-5.8-7.06Z"/><path class="cls-1" d="M194.01,149.29c-1.49-.65-2.56-1.2-2.56-2.2,0-.68.61-1.33,1.91-1.33,1.11.02,2.2.27,3.2.74.03.02.05.03.08.05.35.16.76,0,.92-.34l.52-1c.18-.4.05-.87-.32-1.1-1.33-.77-2.84-1.15-4.37-1.11-3.67,0-5,2.21-5,4.08,0,2.47,1.75,3.73,4.05,4.73,2.07.94,3.21,1.59,3.21,2.59,0,.84-.73,1.46-2,1.46-1.32,0-2.61-.39-3.72-1.1-.03-.03-.07-.05-.1-.07-.32-.18-.72-.06-.9.26l-.68,1.4c-.13.29-.01.62.26.77,1.46,1.02,3.2,1.55,4.98,1.54,3.34,0,5.34-2.04,5.34-4.37,0-2.83-2.07-3.84-4.82-5Z"/><path class="cls-1" d="M210.91,155.21c-.02-.07-.05-.13-.09-.19-.18-.25-.53-.31-.78-.13-.73.44-1.55.68-2.4.71-.71,0-1.2-.26-1.2-1.52v-8h3.95c.39-.02.7-.32.72-.71v-1.33s0-.02,0-.03c-.01-.39-.33-.69-.72-.68h-3.95v-4.18s0,0,0-.01c0-.38-.3-.69-.68-.7h-1.84c-.39,0-.71.32-.71.71v4.18h-1.72s-.04,0-.06,0c-.38.02-.67.33-.65.71v1.33c0,.39.32.7.71.71h1.72v8.13c0,2.65.78,4.46,3.78,4.46,1.45-.02,2.87-.38,4.15-1.06.36-.23.52-.49.36-.88l-.59-1.52Z"/><path class="cls-1" d="M216.13,135.75s-.03,0-.04,0c-1.19.03-2.13,1.01-2.1,2.2,0,.01,0,.02,0,.03,0,1.18.96,2.14,2.14,2.14.1,0,.2,0,.3,0,1.21-.08,2.12-1.13,2.04-2.33-.08-1.21-1.13-2.12-2.33-2.04Z"/><path class="cls-1" d="M217.03,143.33h-1.81c-.39.02-.69.32-.71.71v13.54c0,.39.32.7.71.71h1.81c.39-.02.69-.32.71-.71v-13.54c-.02-.38-.33-.69-.71-.71Z"/><path class="cls-1" d="M231.02,155.21c-.02-.07-.05-.13-.09-.18-.18-.26-.54-.32-.79-.14-.72.43-1.55.68-2.39.71-.71,0-1.2-.26-1.2-1.52v-8h3.95c.39-.02.69-.32.71-.71v-1.33s0-.03,0-.04c-.01-.38-.33-.68-.71-.67h-3.95v-4.18s0,0,0-.01c0-.38-.3-.69-.68-.7h-1.85c-.39,0-.71.32-.71.71v4.18h-1.72s-.04,0-.06,0c-.38.02-.67.33-.65.71v1.33c0,.39.32.7.71.71h1.69l.03,8.13c0,2.65.79,4.46,3.79,4.46,1.44-.02,2.86-.38,4.14-1.06.36-.23.52-.49.36-.88l-.58-1.52Z"/><path class="cls-1" d="M246.59,143.36h-1.68c-.55,0-.84.1-.84.71v9.07c-.53,1.48-1.93,2.46-3.5,2.46-1.91,0-2.91-1.1-2.91-3.56v-8c-.02-.39-.33-.7-.72-.71h-1.81c-.38.03-.68.33-.71.71l.03,7.73c0,3.92,1.1,6.86,5.57,6.86,1.8.08,3.53-.66,4.73-2l.38,1.07c.13.36.3.62.68.62h.78c.4,0,.72-.31.75-.71v-13.54c-.04-.39-.36-.7-.75-.71Z"/><path class="cls-1" d="M260.55,155.21c-.02-.07-.05-.13-.09-.19-.18-.25-.53-.31-.78-.13-.73.43-1.55.68-2.4.71-.71,0-1.2-.26-1.2-1.52v-8h3.95c.39-.02.69-.32.71-.71v-1.33s0-.03,0-.04c-.01-.38-.33-.68-.71-.67h-3.95v-4.18s0,0,0-.01c0-.38-.3-.69-.68-.7h-1.85c-.39,0-.7.32-.71.71v4.18h-1.71s-.03,0-.05,0c-.38.01-.68.33-.67.71v1.33c.01.39.33.7.72.71h1.71v8.13c0,2.65.79,4.46,3.79,4.46,1.45-.02,2.87-.38,4.15-1.06.35-.23.51-.49.35-.88l-.58-1.52Z"/><path class="cls-1" d="M270.68,143c-4.5,0-7.44,3.49-7.44,7.76s2.94,7.83,7.48,7.83c2,.05,3.96-.6,5.53-1.84.46-.38.33-.67.07-1l-.88-1.36c-.26-.38-.55-.29-.87-.06-1.04.83-2.33,1.27-3.66,1.26-2.34.06-4.32-1.74-4.47-4.08h10.33c.36,0,.65-.28.68-.64.07-.22.07-.74.07-1,0-.13,0-.25,0-.38-.1-3.68-3.16-6.59-6.84-6.49ZM266.62,149.16c.22-2.02,1.97-3.51,4-3.4.01,0,.02,0,.04,0,1.95-.07,3.58,1.45,3.65,3.4h-7.69Z"/><path class="cls-1" d="M295.39,143c-4.24.07-7.65,3.54-7.64,7.78,0,.07,0,.15,0,.22.1,4.32,3.68,7.74,8,7.64s7.74-3.68,7.64-8c-.1-4.32-3.68-7.74-8-7.64ZM295.39,155.57c-.06,0-.12,0-.19,0-2.5-.14-4.42-2.28-4.28-4.78,0-.08,0-.15,0-.23.15-2.62,2.4-4.62,5.02-4.46,2.62.15,4.62,2.4,4.46,5.02-.15,2.62-2.4,4.62-5.02,4.46Z"/><path class="cls-1" d="M313.39,135.3c-3.62,0-5.53,2.31-5.53,6.31v1.72h-1.95s-.04,0-.06,0c-.38.02-.67.33-.65.71v1.59c0,.39.32.7.71.71h1.95l.02,11.24c.02.39.32.69.71.71h1.79c.39-.02.69-.32.71-.71v-11.24h4.22c.38-.02.69-.33.71-.71v-1.59s0-.01,0-.02c0-.39-.32-.7-.71-.69h-4.25v-1.72c0-1.88.68-3.24,2.37-3.24.86-.01,1.69.25,2.39.75.42.26.78.23,1-.13l.94-1.36c.18-.27.12-.63-.13-.84-1.19-.98-2.7-1.51-4.24-1.49Z"/><path class="cls-1" d="M335.41,135.6h-7.38c-.34,0-.62.28-.62.62l-.03,21.43c0,.34.28.62.62.62h2.1c.34-.01.61-.28.62-.62v-7.61h4.69c3.99,0,7.22-3.23,7.22-7.22s-3.23-7.22-7.22-7.22ZM335.35,146.87l-4.6-.03v-8h4.6s.09,0,.13,0c2.14,0,3.87,1.75,3.87,3.89,0,.05,0,.09,0,.14,0,2.21-1.79,4-4,4Z"/><path class="cls-1" d="M357.73,143.36h-1.65c-.55,0-.85.1-.85.71v9.07c-.52,1.48-1.92,2.46-3.49,2.46-1.92,0-2.92-1.1-2.92-3.56v-8c-.02-.39-.32-.69-.71-.71h-1.81c-.38.02-.69.33-.71.71v7.73c0,3.92,1.1,6.86,5.56,6.86,1.8.08,3.53-.66,4.73-2l.39,1.07c.13.36.29.62.68.62h.78c.4,0,.72-.32.74-.71v-13.54c-.03-.39-.35-.7-.74-.71Z"/><path class="cls-1" d="M369.99,143c-1.29.04-2.56.3-3.75.78v-7.45c-.03-.38-.34-.69-.72-.71h-1.84c-.39.02-.69.32-.71.71l-.04,21.25c0,.39.32.7.71.71h.77c.36,0,.59-.26.68-.65l.33-1.1c1.31,1.3,3.07,2.05,4.92,2.1,4,0,7-3.56,7-7.83,0-.06,0-.11,0-.17.08-4.14-3.21-7.56-7.36-7.64ZM369.89,155.57h0c-1.53-.02-2.93-.85-3.69-2.17v-6.51c1.07-.53,2.25-.8,3.44-.81,2.53.1,4.51,2.2,4.46,4.73,0,2.52-1.78,4.76-4.21,4.76Z"/><path class="cls-1" d="M383.59,135.62h-1.81c-.39.01-.7.32-.72.71v21.25c.01.39.33.7.72.71h1.81c.39-.02.69-.32.71-.71v-21.25c-.02-.38-.33-.69-.71-.71Z"/><path class="cls-1" d="M391.46,143.33h-1.82c-.38.02-.69.33-.71.71v13.54c.01.39.32.7.71.71h1.82c.38-.02.69-.33.71-.71v-13.54c-.03-.38-.33-.68-.71-.71Z"/><path class="cls-1" d="M390.55,135.75s-.03,0-.04,0c-1.19.03-2.13,1.01-2.1,2.2,0,.01,0,.02,0,.03,0,1.18.96,2.14,2.14,2.14.1,0,.2,0,.3,0,1.21-.08,2.12-1.13,2.04-2.33s-1.13-2.12-2.33-2.04Z"/><path class="cls-1" d="M407.95,153.66s-.02-.02-.03-.02c-.29-.25-.73-.21-.97.08-.81.75-1.59,1.85-3.53,1.85-1.08-.03-2.11-.44-2.92-1.16-1.89-1.68-2.06-4.58-.38-6.47,1.68-1.89,4.58-2.06,6.47-.38.29.26.58.55,1,.16l1.16-1.07s.02-.01.02-.02c.32-.26.36-.72.11-1.04-1.28-1.7-3.31-2.67-5.44-2.6-4.29.04-7.74,3.55-7.71,7.84,0,.06,0,.13,0,.19.01,4.21,3.44,7.62,7.65,7.61,2.34.04,4.54-1.14,5.82-3.1.26-.39.1-.75-.25-1.07l-1-.81Z"/><path class="cls-1" d="M439.06,135.6h-2.14c-.34,0-.62.28-.62.62v9h-11.85v-9s0,0,0-.01c0-.34-.27-.61-.61-.61h-2.14c-.34.01-.6.28-.61.62v21.45c0,.34.27.61.61.62h2.14s0,0,.01,0c.34,0,.61-.28.6-.62v-9.35h11.85v9.33c0,.34.28.62.62.62h2.14c.34-.01.6-.28.61-.62v-21.43c0-.34-.27-.61-.61-.62Z"/><path class="cls-1" d="M451.23,143c-4.5,0-7.45,3.49-7.45,7.76s2.95,7.83,7.48,7.83c2.01.05,3.97-.6,5.54-1.84.45-.38.32-.67.07-1l-.88-1.36c-.26-.38-.55-.29-.87-.06-1.04.83-2.33,1.27-3.66,1.26-2.34.06-4.32-1.74-4.47-4.08h10.33c.36,0,.65-.28.68-.64.06-.22.06-.74.06-1,0-.13,0-.26,0-.39-.1-3.68-3.15-6.58-6.83-6.48ZM447.17,149.16c.21-2.02,1.97-3.52,4-3.4.01,0,.02,0,.04,0,1.95-.07,3.58,1.45,3.65,3.4h-7.69Z"/><path class="cls-1" d="M467.22,143c-1.75,0-3.49.29-5.15.85-.03,0-.06.01-.08.02-.34.12-.52.5-.4.85l.32,1.23s0,.07.01.1c.08.37.45.6.83.52,1.35-.43,2.75-.68,4.17-.72,1.88,0,2.47,1.07,2.4,3.44-.97-.29-1.98-.44-3-.46-3.85,0-5.99,2.08-6.03,4.84-.02.21-.02.42-.01.62.13,2.54,2.29,4.5,4.83,4.38,1.72,0,3.37-.67,4.6-1.87l.36,1c.16.39.32.52.61.52h1.07c.39-.02.69-.32.71-.71v-8c0-3.72-.45-6.61-5.24-6.61ZM469.3,154.18c-.83,1.08-2.1,1.75-3.47,1.81-.09,0-.18,0-.27,0-1.21-.07-2.13-1.11-2.05-2.32,0-1.55,1.33-2.45,3.08-2.45.93-.03,1.85.13,2.71.46v2.5Z"/><path class="cls-1" d="M479.53,135.62h-1.81c-.39.02-.69.32-.71.71v21.25c0,.39.32.7.71.71h1.81c.39-.02.69-.32.71-.71v-21.25c-.02-.38-.33-.69-.71-.71Z"/><path class="cls-1" d="M493.58,155.21c-.02-.07-.05-.13-.09-.19-.18-.25-.53-.31-.78-.13-.73.44-1.55.68-2.4.71-.71,0-1.2-.26-1.2-1.52v-8h4c.39-.02.7-.32.72-.71v-1.33s0-.02,0-.03c-.01-.39-.33-.69-.72-.68h-4v-4.18s0,0,0-.01c0-.38-.3-.69-.68-.7h-1.84c-.39,0-.71.32-.71.71v4.18h-1.72s-.04,0-.06,0c-.38.02-.67.33-.65.71v1.33c0,.39.32.7.71.71h1.72v8.13c0,2.65.79,4.46,3.79,4.46,1.44-.02,2.86-.38,4.14-1.06.36-.23.52-.49.36-.88l-.59-1.52Z"/><path class="cls-1" d="M504.75,143c-1.58.03-3.1.58-4.33,1.56v-8.23c-.03-.38-.34-.69-.72-.71h-1.81c-.39.02-.69.32-.71.71v21.25c0,.39.32.7.71.71h1.76s.06,0,.08,0c.38-.01.68-.33.67-.71v-9.33c.82-1.38,2.31-2.21,3.91-2.17,2,0,3,1.46,3,3.92v7.58c.01.39.32.7.71.71h1.82c.38-.02.69-.33.71-.71v-7.52c0-4.06-1.55-7.06-5.8-7.06Z"/></svg>